<svg xmlns="http://www.w3.org/2000/svg" width="24" height="24" viewBox="0 0 24 24" fill="none"><path d="M8.85039 17.7H15.1629C15.3787 17.7 15.564 17.6227 15.7186 17.468C15.8731 17.3132 15.9504 17.1257 15.9504 16.9055C15.9504 16.6852 15.8731 16.4986 15.7186 16.3457C15.564 16.1931 15.3787 16.1167 15.1629 16.1167H8.85039C8.62822 16.1167 8.44139 16.1947 8.28989 16.3505C8.13856 16.5065 8.06289 16.6934 8.06289 16.9113C8.06289 17.1291 8.13856 17.315 8.28989 17.469C8.44139 17.623 8.62822 17.7 8.85039 17.7ZM8.85039 13.5667H15.1629C15.3787 13.5667 15.564 13.4893 15.7186 13.3345C15.8731 13.1798 15.9504 12.9923 15.9504 12.772C15.9504 12.5518 15.8731 12.3653 15.7186 12.2125C15.564 12.0597 15.3787 11.9832 15.1629 11.9832H8.85039C8.62822 11.9832 8.44139 12.0612 8.28989 12.2172C8.13856 12.3732 8.06289 12.5602 8.06289 12.778C8.06289 12.9958 8.13856 13.1817 8.28989 13.3357C8.44139 13.4897 8.62822 13.5667 8.85039 13.5667ZM5.73364 21.8333C5.30664 21.8333 4.93597 21.6762 4.62164 21.362C4.30747 21.0478 4.15039 20.6772 4.15039 20.25V3.75C4.15039 3.32283 4.30747 2.95217 4.62164 2.638C4.93597 2.32383 5.30664 2.16675 5.73364 2.16675H13.6921C13.9075 2.16675 14.1126 2.20841 14.3076 2.29175C14.5028 2.37508 14.675 2.48833 14.8241 2.6315L19.3724 7.17675C19.5216 7.32558 19.6386 7.498 19.7234 7.694C19.8081 7.89 19.8504 8.09617 19.8504 8.3125V20.25C19.8504 20.6772 19.6933 21.0478 19.3791 21.362C19.0648 21.6762 18.6941 21.8333 18.2671 21.8333H5.73364ZM13.5671 7.60425V3.75H5.73364V20.25H18.2671V8.4H14.3629C14.1407 8.4 13.9526 8.32292 13.7984 8.16875C13.6442 8.01458 13.5671 7.82642 13.5671 7.60425Z" fill="currentColor" />
</svg>
