<svg xmlns="http://www.w3.org/2000/svg" width="24" height="24" viewBox="0 0 24 24" fill="none"><path d="M10.8512 17.7499C10.6291 17.7499 10.4422 17.6725 10.2907 17.5179C10.1394 17.363 10.0637 17.1741 10.0637 16.9511C10.0637 16.7336 10.1394 16.5485 10.2907 16.3956C10.4422 16.243 10.6291 16.1666 10.8512 16.1666H13.1512C13.3734 16.1666 13.5616 16.244 13.7157 16.3986C13.8699 16.5533 13.947 16.7394 13.947 16.9569C13.947 17.18 13.8699 17.368 13.7157 17.5206C13.5616 17.6735 13.3734 17.7499 13.1512 17.7499H10.8512ZM6.91372 12.7874C6.69155 12.7874 6.50339 12.7114 6.34922 12.5594C6.19505 12.4075 6.11797 12.22 6.11797 11.9969C6.11797 11.7739 6.19505 11.586 6.34922 11.4331C6.50339 11.2805 6.69155 11.2041 6.91372 11.2041H17.0845C17.3068 11.2041 17.4951 11.2815 17.6492 11.4361C17.8034 11.5908 17.8805 11.7797 17.8805 12.0029C17.8805 12.2259 17.8034 12.4124 17.6492 12.5624C17.4951 12.7124 17.3068 12.7874 17.0845 12.7874H6.91372ZM3.96372 7.83313C3.74155 7.83313 3.55339 7.75579 3.39922 7.60113C3.24505 7.44646 3.16797 7.25754 3.16797 7.03438C3.16797 6.81688 3.24505 6.63179 3.39922 6.47913C3.55339 6.32629 3.74155 6.24988 3.96372 6.24988H20.047C20.2636 6.24988 20.4491 6.32721 20.6032 6.48188C20.7574 6.63671 20.8345 6.82288 20.8345 7.04038C20.8345 7.26338 20.7574 7.45129 20.6032 7.60413C20.4491 7.75679 20.2636 7.83313 20.047 7.83313H3.96372Z" fill="currentColor" />
</svg>
