<svg width="16" height="17" viewBox="0 0 16 17" fill="none" xmlns="http://www.w3.org/2000/svg">
<g id="Base_Icon">
<path id="Vector" d="M8.04165 11.7786C8.18854 11.7786 8.31287 11.7273 8.41465 11.6245C8.51653 11.5217 8.56748 11.3962 8.56748 11.248V8.37031C8.56748 8.22642 8.51576 8.10292 8.41231 7.99981C8.30887 7.89681 8.18492 7.84531 8.04048 7.84531C7.89181 7.84531 7.76653 7.89681 7.66465 7.99981C7.56287 8.10292 7.51198 8.22642 7.51198 8.37031V11.248C7.51198 11.3962 7.56354 11.5217 7.66665 11.6245C7.76976 11.7273 7.89476 11.7786 8.04165 11.7786ZM7.99948 6.61198C8.15959 6.61198 8.29431 6.55887 8.40365 6.45265C8.51287 6.34654 8.56748 6.21504 8.56748 6.05815C8.56748 5.8907 8.51337 5.75226 8.40515 5.64281C8.29692 5.53337 8.16281 5.47865 8.00281 5.47865C7.83848 5.47865 7.70265 5.53276 7.59531 5.64098C7.48787 5.74931 7.43415 5.88626 7.43415 6.05181C7.43415 6.21115 7.48831 6.34431 7.59665 6.45131C7.70498 6.55842 7.83926 6.61198 7.99948 6.61198ZM8.00448 15.0563C7.09959 15.0563 6.24898 14.8836 5.45265 14.5381C4.65631 14.1926 3.96203 13.7231 3.36981 13.1298C2.77748 12.5364 2.30865 11.8419 1.96331 11.0463C1.61798 10.2506 1.44531 9.40054 1.44531 8.49598C1.44531 7.59042 1.61803 6.73926 1.96348 5.94248C2.30903 5.14559 2.77848 4.45192 3.37181 3.86148C3.96526 3.27104 4.65976 2.80404 5.45531 2.46048C6.25098 2.11704 7.10109 1.94531 8.00565 1.94531C8.9112 1.94531 9.76242 2.11759 10.5593 2.46215C11.3562 2.80659 12.0499 3.27415 12.6403 3.86481C13.2306 4.45548 13.6976 5.1492 14.0411 5.94598C14.3846 6.74276 14.5563 7.59315 14.5563 8.49715C14.5563 9.40204 14.3845 10.2526 14.0408 11.049C13.6971 11.8453 13.2296 12.5389 12.6381 13.1298C12.0466 13.7207 11.3524 14.1895 10.5556 14.5363C9.75887 14.883 8.90848 15.0563 8.00448 15.0563ZM8.00598 14.0008C9.53031 14.0008 10.8272 13.4644 11.8966 12.3915C12.9661 11.3186 13.5008 10.02 13.5008 8.49565C13.5008 6.97131 12.9669 5.67442 11.8991 4.60498C10.8313 3.53554 9.53192 3.00081 8.00115 3.00081C6.48059 3.00081 5.1837 3.5347 4.11048 4.60248C3.03737 5.67037 2.50081 6.9697 2.50081 8.50048C2.50081 10.021 3.03726 11.3179 4.11015 12.3911C5.18303 13.4643 6.48165 14.0008 8.00598 14.0008Z" fill="#A1A1A1"/>
</g>
</svg>
